<svg xmlns="http://www.w3.org/2000/svg" width="67" height="68" viewBox="0 0 67 68" fill="none">
  <circle cx="33.5" cy="34.3335" r="33.5" fill="#62A2A3"/>
  <mask id="mask0_233_692" style="mask-type:alpha" maskUnits="userSpaceOnUse" x="9" y="9" width="49" height="50">
    <rect x="9.125" y="9.9585" width="48.75" height="48.75" fill="#D9D9D9"/>
  </mask>
  <g mask="url(#mask0_233_692)">
    <path d="M27.4062 38.9038C26.6953 38.9038 26.0944 38.6584 25.6035 38.1675C25.1126 37.6766 24.8672 37.0757 24.8672 36.3647C24.8672 35.6538 25.1126 35.0529 25.6035 34.562C26.0944 34.0711 26.6953 33.8257 27.4062 33.8257C28.1172 33.8257 28.7181 34.0711 29.209 34.562C29.6999 35.0529 29.9453 35.6538 29.9453 36.3647C29.9453 37.0757 29.6999 37.6766 29.209 38.1675C28.7181 38.6584 28.1172 38.9038 27.4062 38.9038ZM39.5938 38.9038C38.8828 38.9038 38.2819 38.6584 37.791 38.1675C37.3001 37.6766 37.0547 37.0757 37.0547 36.3647C37.0547 35.6538 37.3001 35.0529 37.791 34.562C38.2819 34.0711 38.8828 33.8257 39.5938 33.8257C40.3047 33.8257 40.9056 34.0711 41.3965 34.562C41.8874 35.0529 42.1328 35.6538 42.1328 36.3647C42.1328 37.0757 41.8874 37.6766 41.3965 38.1675C40.9056 38.6584 40.3047 38.9038 39.5938 38.9038ZM33.5 50.5835C38.0365 50.5835 41.8789 49.0093 45.0273 45.8608C48.1758 42.7124 49.75 38.87 49.75 34.3335C49.75 33.521 49.6992 32.7339 49.5977 31.9722C49.4961 31.2104 49.3099 30.4741 49.0391 29.7632C48.3281 29.9325 47.6172 30.0594 46.9062 30.144C46.1953 30.2287 45.4505 30.271 44.6719 30.271C41.5911 30.271 38.6797 29.6108 35.9375 28.2905C33.1953 26.9702 30.8594 25.1252 28.9297 22.7554C27.8464 25.396 26.2975 27.6896 24.2832 29.6362C22.2689 31.5828 19.9245 33.047 17.25 34.0288V34.3335C17.25 38.87 18.8242 42.7124 21.9727 45.8608C25.1211 49.0093 28.9635 50.5835 33.5 50.5835ZM33.5068 52.6147C30.9788 52.6147 28.6021 52.135 26.3766 51.1757C24.1511 50.2162 22.2153 48.9142 20.569 47.2695C18.9228 45.6248 17.6195 43.6907 16.6592 41.4673C15.6989 39.2439 15.2188 36.8683 15.2188 34.3403C15.2188 31.8123 15.6984 29.4356 16.6578 27.2101C17.6173 24.9846 18.9193 23.0488 20.564 21.4025C22.2087 19.7563 24.1428 18.453 26.3661 17.4927C28.5896 16.5324 30.9652 16.0522 33.4932 16.0522C36.0212 16.0522 38.3979 16.5319 40.6234 17.4913C42.8489 18.4508 44.7847 19.7528 46.431 21.3975C48.0772 23.0422 49.3805 24.9763 50.3408 27.1996C51.3011 29.4231 51.7812 31.7987 51.7812 34.3267C51.7812 36.8547 51.3016 39.2314 50.3422 41.4569C49.3827 43.6824 48.0807 45.6182 46.436 47.2645C44.7913 48.9107 42.8572 50.214 40.6339 51.1743C38.4104 52.1346 36.0348 52.6147 33.5068 52.6147ZM28.8438 18.728C30.5 22.0353 32.8399 24.4474 35.8633 25.9643C38.8867 27.4813 41.8229 28.2397 44.6719 28.2397C45.3021 28.2397 45.9219 28.2078 46.5312 28.144C47.1406 28.0802 47.7474 27.9754 48.3515 27.8296C47.0599 24.8087 45.0586 22.4292 42.3477 20.6909C39.6367 18.9526 36.6875 18.0835 33.5 18.0835C32.6094 18.0835 31.7943 18.1349 31.0547 18.2378C30.3151 18.3407 29.5781 18.5041 28.8438 18.728ZM17.5274 31.7045C19.6185 30.7749 21.737 29.2515 23.8828 27.1343C26.0286 25.0171 27.2799 22.3556 27.6367 19.1499C24.9206 20.1838 22.6719 21.8114 20.8906 24.0327C19.1094 26.2541 17.9883 28.8113 17.5274 31.7045Z" fill="white"/>
  </g>
</svg>