<svg width="45" height="46" viewBox="0 0 45 46" fill="none" xmlns="http://www.w3.org/2000/svg">
<path d="M22.5001 43.646C23.2266 43.646 23.9858 43.5887 24.7774 43.4742C25.5691 43.3596 26.5235 43.1786 27.6407 42.9311C30.1511 45.0015 33.0229 45.8342 36.2559 45.4292C39.489 45.0243 41.8712 43.5041 43.4024 40.8687C44.7175 38.6239 45.1173 36.245 44.6016 33.7319C44.086 31.2189 42.7956 29.1108 40.7305 27.4077C40.7566 27.1134 40.7696 26.7755 40.7696 26.394V25.3804C42.7123 23.7892 43.9506 21.717 44.4844 19.1636C45.0183 16.6102 44.6876 14.2892 43.4923 12.2007C42.3178 10.146 40.6173 8.72476 38.3907 7.93698C36.1641 7.14922 33.9102 7.09389 31.629 7.77097C31.0144 5.76315 29.8718 4.13099 28.2012 2.87449C26.5307 1.61799 24.6303 0.989746 22.5001 0.989746C20.3699 0.989746 18.4695 1.61799 16.7989 2.87449C15.1283 4.13099 13.9858 5.76315 13.3712 7.77097C11.0899 7.09389 8.8425 7.14922 6.62894 7.93698C4.41542 8.72476 2.70839 10.146 1.50786 12.2007C0.312533 14.3153 -0.0181886 16.6493 0.515692 19.2026C1.04954 21.756 2.28782 23.8153 4.23054 25.3804V26.394C4.23054 26.7755 4.24356 27.1134 4.26959 27.4077C2.20449 29.1108 0.914121 31.2254 0.398489 33.7515C-0.11711 36.2775 0.282623 38.6499 1.59769 40.8687C3.12895 43.5041 5.51111 45.0243 8.74418 45.4292C11.9773 45.8342 14.849 45.0015 17.3594 42.9311C18.4766 43.1786 19.431 43.3596 20.2227 43.4742C21.0144 43.5887 21.7735 43.646 22.5001 43.646ZM14.9376 41.9663C12.9948 43.2944 10.8549 43.7417 8.51765 43.3081C6.18039 42.8745 4.45577 41.715 3.3438 39.8296C2.42452 38.228 2.09511 36.5073 2.35555 34.6675C2.61595 32.8276 3.42324 31.2332 4.77741 29.8843C5.13156 31.2254 5.62178 32.4982 6.24808 33.7027C6.87438 34.9071 7.61984 36.0353 8.48444 37.0874C9.34901 38.1395 10.3308 39.0698 11.4298 39.8784C12.5287 40.687 13.698 41.383 14.9376 41.9663ZM30.0626 41.9663C31.336 41.383 32.5138 40.687 33.5958 39.8784C34.6778 39.0698 35.6511 38.1395 36.5157 37.0874C37.3803 36.0353 38.1322 34.9071 38.7715 33.7027C39.4109 32.4982 39.8946 31.2254 40.2227 29.8843C41.5769 31.2332 42.3842 32.8276 42.6446 34.6675C42.905 36.5073 42.5756 38.228 41.6563 39.8296C40.5443 41.715 38.8197 42.8745 36.4825 43.3081C34.1453 43.7417 32.0053 43.2944 30.0626 41.9663ZM22.5001 41.6147C17.9636 41.6147 14.1212 40.0405 10.9727 36.8921C7.82428 33.7437 6.25006 29.9012 6.25006 25.3647C6.25006 21.3908 7.50527 17.9155 10.0157 14.939C12.5261 11.9624 15.6719 10.1121 19.4532 9.3882V9.62256C19.4532 12.7938 20.5647 15.4909 22.7876 17.7139C25.0106 19.9369 27.7077 21.0483 30.879 21.0483C32.1654 21.0483 33.3551 20.869 34.4479 20.5102C35.5407 20.1515 36.5399 19.6459 37.4454 18.9937C37.8803 19.9702 38.2064 20.9917 38.4239 22.0581C38.6413 23.1245 38.7501 24.2267 38.7501 25.3647C38.7501 29.9012 37.1758 33.7437 34.0274 36.8921C30.879 40.0405 27.0365 41.6147 22.5001 41.6147ZM16.4063 29.9351C15.6954 29.9351 15.0945 29.6896 14.6036 29.1987C14.1127 28.7078 13.8673 28.1069 13.8673 27.396C13.8673 26.6851 14.1127 26.0841 14.6036 25.5933C15.0945 25.1024 15.6954 24.8569 16.4063 24.8569C17.1173 24.8569 17.7182 25.1024 18.209 25.5933C18.6999 26.0841 18.9454 26.6851 18.9454 27.396C18.9454 28.1069 18.6999 28.7078 18.209 29.1987C17.7182 29.6896 17.1173 29.9351 16.4063 29.9351ZM28.5938 29.9351C27.8829 29.9351 27.282 29.6896 26.7911 29.1987C26.3002 28.7078 26.0548 28.1069 26.0548 27.396C26.0548 26.6851 26.3002 26.0841 26.7911 25.5933C27.282 25.1024 27.8829 24.8569 28.5938 24.8569C29.3048 24.8569 29.9057 25.1024 30.3965 25.5933C30.8874 26.0841 31.1329 26.6851 31.1329 27.396C31.1329 28.1069 30.8874 28.7078 30.3965 29.1987C29.9057 29.6896 29.3048 29.9351 28.5938 29.9351ZM4.50004 22.4663C3.35942 21.2554 2.66022 19.7645 2.40242 17.9936C2.14459 16.2228 2.43235 14.6264 3.2657 13.2046C4.24486 11.5093 5.64524 10.3713 7.46683 9.79054C9.28846 9.20981 11.1094 9.21892 12.9297 9.81786C11.7891 10.4949 10.7468 11.2983 9.80277 12.228C8.85878 13.1577 8.0261 14.1577 7.30474 15.228C6.58337 16.2983 5.98571 17.4409 5.51175 18.6557C5.0378 19.8706 4.70056 21.1408 4.50004 22.4663ZM40.5001 22.4663C40.2996 21.1408 39.9623 19.8706 39.4884 18.6557C39.0144 17.4409 38.4168 16.2983 37.6954 15.228C36.974 14.1577 36.1413 13.1577 35.1974 12.228C34.2533 11.2983 33.211 10.4949 32.0704 9.81786C33.8907 9.19288 35.7117 9.17726 37.5333 9.77099C39.3549 10.3648 40.7553 11.5093 41.7344 13.2046C42.5678 14.6264 42.8621 16.2228 42.6173 17.9936C42.3725 19.7645 41.6667 21.2554 40.5001 22.4663ZM30.879 19.0171C28.2826 19.0171 26.0678 18.1004 24.2344 16.2671C22.4011 14.4337 21.4844 12.2189 21.4844 9.62256V9.271C21.6667 9.22933 21.836 9.19677 21.9923 9.17335C22.1485 9.14992 22.3178 9.13039 22.5001 9.11475C24.0239 9.11475 25.4752 9.30355 26.8539 9.68116C28.2326 10.0588 29.5235 10.6082 30.7266 11.3296C31.9297 12.0509 33.0287 12.9019 34.0235 13.8823C35.0183 14.8628 35.8581 15.9728 36.543 17.2124C35.78 17.7801 34.9298 18.2228 33.9923 18.5405C33.0547 18.8582 32.017 19.0171 30.879 19.0171ZM29.504 8.52096C28.4415 8.04182 27.3161 7.68246 26.128 7.44288C24.9399 7.20329 23.7306 7.0835 22.5001 7.0835C21.3139 7.0835 20.1483 7.19677 19.0031 7.42333C17.8578 7.64988 16.767 7.9767 15.7305 8.40381C16.0691 6.84652 16.866 5.56006 18.1211 4.54443C19.3764 3.52881 20.836 3.021 22.5001 3.021C24.1641 3.021 25.6368 3.53533 26.918 4.56399C28.1993 5.59261 29.0613 6.9116 29.504 8.52096Z" fill="white"/>
</svg>
