<svg width="37" height="37" viewBox="0 0 37 37" fill="none" xmlns="http://www.w3.org/2000/svg">
<path d="M18.5 36.6147C15.9844 36.6147 13.6146 36.1336 11.3906 35.1714C9.16668 34.2092 7.22983 32.9032 5.58008 31.2534C3.93033 29.6037 2.62434 27.6668 1.66211 25.4429C0.699869 23.2189 0.21875 20.8491 0.21875 18.3335C0.21875 15.81 0.699869 13.4363 1.66211 11.2124C2.62434 8.98844 3.93033 7.04704 5.58008 5.38819C7.22983 3.72933 9.16668 2.42529 11.3906 1.47605C13.6146 0.526849 15.9844 0.0522461 18.5 0.0522461C21.0235 0.0522461 23.3972 0.526849 25.6211 1.47605C27.8451 2.42529 29.7865 3.72933 31.4453 5.38819C33.1042 7.04704 34.4082 8.98844 35.3574 11.2124C36.3066 13.4363 36.7812 15.81 36.7812 18.3335C36.7812 20.8491 36.3066 23.2189 35.3574 25.4429C34.4082 27.6668 33.1042 29.6037 31.4453 31.2534C29.7865 32.9032 27.8451 34.2092 25.6211 35.1714C23.3972 36.1336 21.0235 36.6147 18.5 36.6147ZM18.5 2.0835C14.5599 2.0835 11.1055 3.31982 8.13671 5.79246C5.16798 8.26513 3.31382 11.3621 2.57424 15.0835C3.40756 15.0184 4.31835 14.6688 5.30663 14.0347C6.29493 13.4005 7.30209 12.0444 8.32811 9.96632C8.75782 9.09911 9.38543 8.41487 10.2109 7.91359C11.0365 7.41228 11.9375 7.16162 12.9141 7.16162H24.0859C25.0625 7.16162 25.9635 7.40576 26.7891 7.89404C27.6146 8.38232 28.2422 9.06004 28.6719 9.92722C29.724 12.0392 30.7546 13.4168 31.7637 14.0601C32.7728 14.7033 33.6602 15.0444 34.4258 15.0835C33.6862 11.3621 31.834 8.26513 28.8691 5.79246C25.9043 3.31982 22.4479 2.0835 18.5 2.0835ZM18.5 34.5835C23.0365 34.5835 26.8809 32.9989 30.0332 29.8296C33.1855 26.6603 34.7578 22.8205 34.75 18.31V17.7437C34.75 17.5744 34.737 17.3986 34.711 17.2163C32.7239 17.0575 31.1133 16.3628 29.8789 15.1323C28.6445 13.9018 27.6224 12.4767 26.8125 10.8569C26.539 10.3283 26.1699 9.91879 25.7051 9.62842C25.2402 9.33806 24.7175 9.19287 24.1367 9.19287H12.9141C12.2995 9.19287 11.7598 9.33806 11.2949 9.62842C10.8301 9.91879 10.461 10.3283 10.1875 10.8569C9.37762 12.5106 8.35157 13.9526 7.10936 15.1831C5.86718 16.4136 4.26041 17.1082 2.28905 17.2671C2.26302 17.4494 2.25 17.6252 2.25 17.7945V18.3218C2.25 22.8322 3.83268 26.6701 6.99805 29.8354C10.1634 33.0008 13.9974 34.5835 18.5 34.5835ZM12.4062 22.9038C11.6953 22.9038 11.0944 22.6584 10.6035 22.1675C10.1126 21.6766 9.86719 21.0757 9.86719 20.3647C9.86719 19.6538 10.1126 19.0529 10.6035 18.562C11.0944 18.0711 11.6953 17.8257 12.4062 17.8257C13.1172 17.8257 13.7181 18.0711 14.209 18.562C14.6999 19.0529 14.9453 19.6538 14.9453 20.3647C14.9453 21.0757 14.6999 21.6766 14.209 22.1675C13.7181 22.6584 13.1172 22.9038 12.4062 22.9038ZM24.5938 22.9038C23.8828 22.9038 23.2819 22.6584 22.791 22.1675C22.3001 21.6766 22.0547 21.0757 22.0547 20.3647C22.0547 19.6538 22.3001 19.0529 22.791 18.562C23.2819 18.0711 23.8828 17.8257 24.5938 17.8257C25.3047 17.8257 25.9056 18.0711 26.3965 18.562C26.8874 19.0529 27.1328 19.6538 27.1328 20.3647C27.1328 21.0757 26.8874 21.6766 26.3965 22.1675C25.9056 22.6584 25.3047 22.9038 24.5938 22.9038Z" fill="white"/>
</svg>
