<svg width="37" height="37" viewBox="0 0 37 37" fill="none" xmlns="http://www.w3.org/2000/svg">
<path d="M18.5 6.65381C18.2292 6.65381 17.9922 6.55225 17.7891 6.34912C17.5859 6.146 17.4844 5.90902 17.4844 5.63818C17.4844 5.36735 17.5859 5.13037 17.7891 4.92725C17.9922 4.72412 18.2292 4.62256 18.5 4.62256C18.7708 4.62256 19.0078 4.72412 19.2109 4.92725C19.4141 5.13037 19.5156 5.36735 19.5156 5.63818C19.5156 5.90902 19.4141 6.146 19.2109 6.34912C19.0078 6.55225 18.7708 6.65381 18.5 6.65381ZM22.5625 6.65381C22.2917 6.65381 22.0547 6.55225 21.8516 6.34912C21.6484 6.146 21.5469 5.90902 21.5469 5.63818C21.5469 5.36735 21.6484 5.13037 21.8516 4.92725C22.0547 4.72412 22.2917 4.62256 22.5625 4.62256C22.8333 4.62256 23.0703 4.72412 23.2734 4.92725C23.4766 5.13037 23.5781 5.36735 23.5781 5.63818C23.5781 5.90902 23.4766 6.146 23.2734 6.34912C23.0703 6.55225 22.8333 6.65381 22.5625 6.65381ZM14.4375 6.65381C14.1667 6.65381 13.9297 6.55225 13.7266 6.34912C13.5234 6.146 13.4219 5.90902 13.4219 5.63818C13.4219 5.36735 13.5234 5.13037 13.7266 4.92725C13.9297 4.72412 14.1667 4.62256 14.4375 4.62256C14.7083 4.62256 14.9453 4.72412 15.1484 4.92725C15.3516 5.13037 15.4531 5.36735 15.4531 5.63818C15.4531 5.90902 15.3516 6.146 15.1484 6.34912C14.9453 6.55225 14.7083 6.65381 14.4375 6.65381ZM28.6562 8.68506C28.3854 8.68506 28.1484 8.5835 27.9453 8.38037C27.7422 8.17725 27.6406 7.94027 27.6406 7.66943C27.6406 7.3986 27.7422 7.16162 27.9453 6.9585C28.1484 6.75537 28.3854 6.65381 28.6562 6.65381C28.9271 6.65381 29.1641 6.75537 29.3672 6.9585C29.5703 7.16162 29.6719 7.3986 29.6719 7.66943C29.6719 7.94027 29.5703 8.17725 29.3672 8.38037C29.1641 8.5835 28.9271 8.68506 28.6562 8.68506ZM12.4062 8.68506C12.1354 8.68506 11.8984 8.5835 11.6953 8.38037C11.4922 8.17725 11.3906 7.94027 11.3906 7.66943C11.3906 7.3986 11.4922 7.16162 11.6953 6.9585C11.8984 6.75537 12.1354 6.65381 12.4062 6.65381C12.6771 6.65381 12.9141 6.75537 13.1172 6.9585C13.3203 7.16162 13.4219 7.3986 13.4219 7.66943C13.4219 7.94027 13.3203 8.17725 13.1172 8.38037C12.9141 8.5835 12.6771 8.68506 12.4062 8.68506ZM8.34375 8.68506C8.07292 8.68506 7.83594 8.5835 7.63281 8.38037C7.42969 8.17725 7.32812 7.94027 7.32812 7.66943C7.32812 7.3986 7.42969 7.16162 7.63281 6.9585C7.83594 6.75537 8.07292 6.65381 8.34375 6.65381C8.61458 6.65381 8.85156 6.75537 9.05469 6.9585C9.25781 7.16162 9.35938 7.3986 9.35938 7.66943C9.35938 7.94027 9.25781 8.17725 9.05469 8.38037C8.85156 8.5835 8.61458 8.68506 8.34375 8.68506ZM16.4688 8.68506C16.1979 8.68506 15.9609 8.5835 15.7578 8.38037C15.5547 8.17725 15.4531 7.94027 15.4531 7.66943C15.4531 7.3986 15.5547 7.16162 15.7578 6.9585C15.9609 6.75537 16.1979 6.65381 16.4688 6.65381C16.7396 6.65381 16.9766 6.75537 17.1797 6.9585C17.3828 7.16162 17.4844 7.3986 17.4844 7.66943C17.4844 7.94027 17.3828 8.17725 17.1797 8.38037C16.9766 8.5835 16.7396 8.68506 16.4688 8.68506ZM20.5312 8.68506C20.2604 8.68506 20.0234 8.5835 19.8203 8.38037C19.6172 8.17725 19.5156 7.94027 19.5156 7.66943C19.5156 7.3986 19.6172 7.16162 19.8203 6.9585C20.0234 6.75537 20.2604 6.65381 20.5312 6.65381C20.8021 6.65381 21.0391 6.75537 21.2422 6.9585C21.4453 7.16162 21.5469 7.3986 21.5469 7.66943C21.5469 7.94027 21.4453 8.17725 21.2422 8.38037C21.0391 8.5835 20.8021 8.68506 20.5312 8.68506ZM24.5938 8.68506C24.3229 8.68506 24.0859 8.5835 23.8828 8.38037C23.6797 8.17725 23.5781 7.94027 23.5781 7.66943C23.5781 7.3986 23.6797 7.16162 23.8828 6.9585C24.0859 6.75537 24.3229 6.65381 24.5938 6.65381C24.8646 6.65381 25.1016 6.75537 25.3047 6.9585C25.5078 7.16162 25.6094 7.3986 25.6094 7.66943C25.6094 7.94027 25.5078 8.17725 25.3047 8.38037C25.1016 8.5835 24.8646 8.68506 24.5938 8.68506ZM18.5 10.7163C18.2292 10.7163 17.9922 10.6147 17.7891 10.4116C17.5859 10.2085 17.4844 9.97152 17.4844 9.70068C17.4844 9.42985 17.5859 9.19287 17.7891 8.98975C17.9922 8.78662 18.2292 8.68506 18.5 8.68506C18.7708 8.68506 19.0078 8.78662 19.2109 8.98975C19.4141 9.19287 19.5156 9.42985 19.5156 9.70068C19.5156 9.97152 19.4141 10.2085 19.2109 10.4116C19.0078 10.6147 18.7708 10.7163 18.5 10.7163ZM22.5625 10.7163C22.2917 10.7163 22.0547 10.6147 21.8516 10.4116C21.6484 10.2085 21.5469 9.97152 21.5469 9.70068C21.5469 9.42985 21.6484 9.19287 21.8516 8.98975C22.0547 8.78662 22.2917 8.68506 22.5625 8.68506C22.8333 8.68506 23.0703 8.78662 23.2734 8.98975C23.4766 9.19287 23.5781 9.42985 23.5781 9.70068C23.5781 9.97152 23.4766 10.2085 23.2734 10.4116C23.0703 10.6147 22.8333 10.7163 22.5625 10.7163ZM26.625 10.7163C26.3542 10.7163 26.1172 10.6147 25.9141 10.4116C25.7109 10.2085 25.6094 9.97152 25.6094 9.70068C25.6094 9.42985 25.7109 9.19287 25.9141 8.98975C26.1172 8.78662 26.3542 8.68506 26.625 8.68506C26.8958 8.68506 27.1328 8.78662 27.3359 8.98975C27.5391 9.19287 27.6406 9.42985 27.6406 9.70068C27.6406 9.97152 27.5391 10.2085 27.3359 10.4116C27.1328 10.6147 26.8958 10.7163 26.625 10.7163ZM14.4375 10.7163C14.1667 10.7163 13.9297 10.6147 13.7266 10.4116C13.5234 10.2085 13.4219 9.97152 13.4219 9.70068C13.4219 9.42985 13.5234 9.19287 13.7266 8.98975C13.9297 8.78662 14.1667 8.68506 14.4375 8.68506C14.7083 8.68506 14.9453 8.78662 15.1484 8.98975C15.3516 9.19287 15.4531 9.42985 15.4531 9.70068C15.4531 9.97152 15.3516 10.2085 15.1484 10.4116C14.9453 10.6147 14.7083 10.7163 14.4375 10.7163ZM10.375 10.7163C10.1042 10.7163 9.86719 10.6147 9.66406 10.4116C9.46094 10.2085 9.35938 9.97152 9.35938 9.70068C9.35938 9.42985 9.46094 9.19287 9.66406 8.98975C9.86719 8.78662 10.1042 8.68506 10.375 8.68506C10.6458 8.68506 10.8828 8.78662 11.0859 8.98975C11.2891 9.19287 11.3906 9.42985 11.3906 9.70068C11.3906 9.97152 11.2891 10.2085 11.0859 10.4116C10.8828 10.6147 10.6458 10.7163 10.375 10.7163ZM12.4062 12.7476C12.1354 12.7476 11.8984 12.646 11.6953 12.4429C11.4922 12.2397 11.3906 12.0028 11.3906 11.7319C11.3906 11.4611 11.4922 11.2241 11.6953 11.021C11.8984 10.8179 12.1354 10.7163 12.4062 10.7163C12.6771 10.7163 12.9141 10.8179 13.1172 11.021C13.3203 11.2241 13.4219 11.4611 13.4219 11.7319C13.4219 12.0028 13.3203 12.2397 13.1172 12.4429C12.9141 12.646 12.6771 12.7476 12.4062 12.7476ZM8.34375 12.7476C8.07292 12.7476 7.83594 12.646 7.63281 12.4429C7.42969 12.2397 7.32812 12.0028 7.32812 11.7319C7.32812 11.4611 7.42969 11.2241 7.63281 11.021C7.83594 10.8179 8.07292 10.7163 8.34375 10.7163C8.61458 10.7163 8.85156 10.8179 9.05469 11.021C9.25781 11.2241 9.35938 11.4611 9.35938 11.7319C9.35938 12.0028 9.25781 12.2397 9.05469 12.4429C8.85156 12.646 8.61458 12.7476 8.34375 12.7476ZM16.4688 12.7476C16.1979 12.7476 15.9609 12.646 15.7578 12.4429C15.5547 12.2397 15.4531 12.0028 15.4531 11.7319C15.4531 11.4611 15.5547 11.2241 15.7578 11.021C15.9609 10.8179 16.1979 10.7163 16.4688 10.7163C16.7396 10.7163 16.9766 10.8179 17.1797 11.021C17.3828 11.2241 17.4844 11.4611 17.4844 11.7319C17.4844 12.0028 17.3828 12.2397 17.1797 12.4429C16.9766 12.646 16.7396 12.7476 16.4688 12.7476ZM20.5312 12.7476C20.2604 12.7476 20.0234 12.646 19.8203 12.4429C19.6172 12.2397 19.5156 12.0028 19.5156 11.7319C19.5156 11.4611 19.6172 11.2241 19.8203 11.021C20.0234 10.8179 20.2604 10.7163 20.5312 10.7163C20.8021 10.7163 21.0391 10.8179 21.2422 11.021C21.4453 11.2241 21.5469 11.4611 21.5469 11.7319C21.5469 12.0028 21.4453 12.2397 21.2422 12.4429C21.0391 12.646 20.8021 12.7476 20.5312 12.7476ZM24.5938 12.7476C24.3229 12.7476 24.0859 12.646 23.8828 12.4429C23.6797 12.2397 23.5781 12.0028 23.5781 11.7319C23.5781 11.4611 23.6797 11.2241 23.8828 11.021C24.0859 10.8179 24.3229 10.7163 24.5938 10.7163C24.8646 10.7163 25.1016 10.8179 25.3047 11.021C25.5078 11.2241 25.6094 11.4611 25.6094 11.7319C25.6094 12.0028 25.5078 12.2397 25.3047 12.4429C25.1016 12.646 24.8646 12.7476 24.5938 12.7476ZM28.6562 12.7476C28.3854 12.7476 28.1484 12.646 27.9453 12.4429C27.7422 12.2397 27.6406 12.0028 27.6406 11.7319C27.6406 11.4611 27.7422 11.2241 27.9453 11.021C28.1484 10.8179 28.3854 10.7163 28.6562 10.7163C28.9271 10.7163 29.1641 10.8179 29.3672 11.021C29.5703 11.2241 29.6719 11.4611 29.6719 11.7319C29.6719 12.0028 29.5703 12.2397 29.3672 12.4429C29.1641 12.646 28.9271 12.7476 28.6562 12.7476ZM4.28125 12.7476C4.01042 12.7476 3.77344 12.646 3.57031 12.4429C3.36719 12.2397 3.26562 12.0028 3.26562 11.7319C3.26562 11.4611 3.36719 11.2241 3.57031 11.021C3.77344 10.8179 4.01042 10.7163 4.28125 10.7163C4.55208 10.7163 4.78906 10.8179 4.99219 11.021C5.19531 11.2241 5.29688 11.4611 5.29688 11.7319C5.29688 12.0028 5.19531 12.2397 4.99219 12.4429C4.78906 12.646 4.55208 12.7476 4.28125 12.7476ZM6.3125 10.7163C6.04167 10.7163 5.80469 10.6147 5.60156 10.4116C5.39844 10.2085 5.29688 9.97152 5.29688 9.70068C5.29688 9.42985 5.39844 9.19287 5.60156 8.98975C5.80469 8.78662 6.04167 8.68506 6.3125 8.68506C6.58333 8.68506 6.82031 8.78662 7.02344 8.98975C7.22656 9.19287 7.32812 9.42985 7.32812 9.70068C7.32812 9.97152 7.22656 10.2085 7.02344 10.4116C6.82031 10.6147 6.58333 10.7163 6.3125 10.7163ZM10.375 6.65381C10.1042 6.65381 9.86719 6.55225 9.66406 6.34912C9.46094 6.146 9.35938 5.90902 9.35938 5.63818C9.35938 5.36735 9.46094 5.13037 9.66406 4.92725C9.86719 4.72412 10.1042 4.62256 10.375 4.62256C10.6458 4.62256 10.8828 4.72412 11.0859 4.92725C11.2891 5.13037 11.3906 5.36735 11.3906 5.63818C11.3906 5.90902 11.2891 6.146 11.0859 6.34912C10.8828 6.55225 10.6458 6.65381 10.375 6.65381ZM12.4062 4.62256C12.1354 4.62256 11.8984 4.521 11.6953 4.31787C11.4922 4.11475 11.3906 3.87777 11.3906 3.60693C11.3906 3.3361 11.4922 3.09912 11.6953 2.896C11.8984 2.69287 12.1354 2.59131 12.4062 2.59131C12.6771 2.59131 12.9141 2.69287 13.1172 2.896C13.3203 3.09912 13.4219 3.3361 13.4219 3.60693C13.4219 3.87777 13.3203 4.11475 13.1172 4.31787C12.9141 4.521 12.6771 4.62256 12.4062 4.62256ZM16.4688 4.62256C16.1979 4.62256 15.9609 4.521 15.7578 4.31787C15.5547 4.11475 15.4531 3.87777 15.4531 3.60693C15.4531 3.3361 15.5547 3.09912 15.7578 2.896C15.9609 2.69287 16.1979 2.59131 16.4688 2.59131C16.7396 2.59131 16.9766 2.69287 17.1797 2.896C17.3828 3.09912 17.4844 3.3361 17.4844 3.60693C17.4844 3.87777 17.3828 4.11475 17.1797 4.31787C16.9766 4.521 16.7396 4.62256 16.4688 4.62256ZM20.5312 4.62256C20.2604 4.62256 20.0234 4.521 19.8203 4.31787C19.6172 4.11475 19.5156 3.87777 19.5156 3.60693C19.5156 3.3361 19.6172 3.09912 19.8203 2.896C20.0234 2.69287 20.2604 2.59131 20.5312 2.59131C20.8021 2.59131 21.0391 2.69287 21.2422 2.896C21.4453 3.09912 21.5469 3.3361 21.5469 3.60693C21.5469 3.87777 21.4453 4.11475 21.2422 4.31787C21.0391 4.521 20.8021 4.62256 20.5312 4.62256ZM24.5938 4.62256C24.3229 4.62256 24.0859 4.521 23.8828 4.31787C23.6797 4.11475 23.5781 3.87777 23.5781 3.60693C23.5781 3.3361 23.6797 3.09912 23.8828 2.896C24.0859 2.69287 24.3229 2.59131 24.5938 2.59131C24.8646 2.59131 25.1016 2.69287 25.3047 2.896C25.5078 3.09912 25.6094 3.3361 25.6094 3.60693C25.6094 3.87777 25.5078 4.11475 25.3047 4.31787C25.1016 4.521 24.8646 4.62256 24.5938 4.62256ZM26.625 6.65381C26.3542 6.65381 26.1172 6.55225 25.9141 6.34912C25.7109 6.146 25.6094 5.90902 25.6094 5.63818C25.6094 5.36735 25.7109 5.13037 25.9141 4.92725C26.1172 4.72412 26.3542 4.62256 26.625 4.62256C26.8958 4.62256 27.1328 4.72412 27.3359 4.92725C27.5391 5.13037 27.6406 5.36735 27.6406 5.63818C27.6406 5.90902 27.5391 6.146 27.3359 6.34912C27.1328 6.55225 26.8958 6.65381 26.625 6.65381ZM30.6875 10.7163C30.4167 10.7163 30.1797 10.6147 29.9766 10.4116C29.7734 10.2085 29.6719 9.97152 29.6719 9.70068C29.6719 9.42985 29.7734 9.19287 29.9766 8.98975C30.1797 8.78662 30.4167 8.68506 30.6875 8.68506C30.9583 8.68506 31.1953 8.78662 31.3984 8.98975C31.6016 9.19287 31.7031 9.42985 31.7031 9.70068C31.7031 9.97152 31.6016 10.2085 31.3984 10.4116C31.1953 10.6147 30.9583 10.7163 30.6875 10.7163ZM32.7188 12.7476C32.4479 12.7476 32.2109 12.646 32.0078 12.4429C31.8047 12.2397 31.7031 12.0028 31.7031 11.7319C31.7031 11.4611 31.8047 11.2241 32.0078 11.021C32.2109 10.8179 32.4479 10.7163 32.7188 10.7163C32.9896 10.7163 33.2266 10.8179 33.4297 11.021C33.6328 11.2241 33.7344 11.4611 33.7344 11.7319C33.7344 12.0028 33.6328 12.2397 33.4297 12.4429C33.2266 12.646 32.9896 12.7476 32.7188 12.7476ZM12.4062 22.9038C11.6953 22.9038 11.0944 22.6584 10.6035 22.1675C10.1126 21.6766 9.86719 21.0757 9.86719 20.3647C9.86719 19.6538 10.1126 19.0529 10.6035 18.562C11.0944 18.0711 11.6953 17.8257 12.4062 17.8257C13.1172 17.8257 13.7181 18.0711 14.209 18.562C14.6999 19.0529 14.9453 19.6538 14.9453 20.3647C14.9453 21.0757 14.6999 21.6766 14.209 22.1675C13.7181 22.6584 13.1172 22.9038 12.4062 22.9038ZM24.5938 22.9038C23.8828 22.9038 23.2819 22.6584 22.791 22.1675C22.3001 21.6766 22.0547 21.0757 22.0547 20.3647C22.0547 19.6538 22.3001 19.0529 22.791 18.562C23.2819 18.0711 23.8828 17.8257 24.5938 17.8257C25.3047 17.8257 25.9056 18.0711 26.3965 18.562C26.8874 19.0529 27.1328 19.6538 27.1328 20.3647C27.1328 21.0757 26.8874 21.6766 26.3965 22.1675C25.9056 22.6584 25.3047 22.9038 24.5938 22.9038ZM18.5 36.6147C15.9844 36.6147 13.6164 36.1357 11.3962 35.1777C9.17587 34.2196 7.23692 32.9118 5.57932 31.2542C3.92172 29.5966 2.61388 27.6576 1.65581 25.4373C0.697769 23.2171 0.21875 20.8548 0.21875 18.3506C0.21875 15.8157 0.699869 13.4363 1.66211 11.2124C2.62434 8.98844 3.93033 7.04704 5.58008 5.38819C7.22983 3.72933 9.16812 2.42529 11.3949 1.47605C13.6218 0.526849 15.9859 0.0522461 18.4873 0.0522461C21.0192 0.0522461 23.3972 0.526849 25.6211 1.47605C27.8451 2.42529 29.7865 3.72933 31.4453 5.38819C33.1042 7.04704 34.4082 8.98761 35.3574 11.2099C36.3066 13.4322 36.7812 15.8068 36.7812 18.3335C36.7812 20.8379 36.3066 23.2049 35.3574 25.4345C34.4082 27.664 33.1042 29.6037 31.4453 31.2534C29.7865 32.9032 27.8459 34.2092 25.6236 35.1714C23.4013 36.1336 21.0267 36.6147 18.5 36.6147ZM18.5 34.5835C23.0365 34.5835 26.8789 33.0008 30.0273 29.8354C33.1758 26.6701 34.75 22.8361 34.75 18.3335C34.75 13.797 33.1758 9.95459 30.0273 6.80615C26.8789 3.65771 23.0365 2.0835 18.5 2.0835C13.9974 2.0835 10.1634 3.65771 6.99805 6.80615C3.83268 9.95459 2.25 13.797 2.25 18.3335C2.25 22.8361 3.83268 26.6701 6.99805 29.8354C10.1634 33.0008 13.9974 34.5835 18.5 34.5835Z" fill="white"/>
</svg>
