<svg width="37" height="37" viewBox="0 0 37 37" fill="none" xmlns="http://www.w3.org/2000/svg">
<path d="M12.4062 22.9038C11.6953 22.9038 11.0944 22.6584 10.6035 22.1675C10.1126 21.6766 9.86719 21.0757 9.86719 20.3647C9.86719 19.6538 10.1126 19.0529 10.6035 18.562C11.0944 18.0711 11.6953 17.8257 12.4062 17.8257C13.1172 17.8257 13.7181 18.0711 14.209 18.562C14.6999 19.0529 14.9453 19.6538 14.9453 20.3647C14.9453 21.0757 14.6999 21.6766 14.209 22.1675C13.7181 22.6584 13.1172 22.9038 12.4062 22.9038ZM24.5938 22.9038C23.8828 22.9038 23.2819 22.6584 22.791 22.1675C22.3001 21.6766 22.0547 21.0757 22.0547 20.3647C22.0547 19.6538 22.3001 19.0529 22.791 18.562C23.2819 18.0711 23.8828 17.8257 24.5938 17.8257C25.3047 17.8257 25.9056 18.0711 26.3965 18.562C26.8874 19.0529 27.1328 19.6538 27.1328 20.3647C27.1328 21.0757 26.8874 21.6766 26.3965 22.1675C25.9056 22.6584 25.3047 22.9038 24.5938 22.9038ZM18.5 34.5835C23.0365 34.5835 26.8789 33.0093 30.0273 29.8608C33.1758 26.7124 34.75 22.87 34.75 18.3335C34.75 17.521 34.6992 16.7339 34.5977 15.9722C34.4961 15.2104 34.3099 14.4741 34.0391 13.7632C33.3281 13.9325 32.6172 14.0594 31.9062 14.144C31.1953 14.2287 30.4505 14.271 29.6719 14.271C26.5911 14.271 23.6797 13.6108 20.9375 12.2905C18.1953 10.9702 15.8594 9.12516 13.9297 6.75537C12.8464 9.396 11.2975 11.6896 9.2832 13.6362C7.26888 15.5828 4.92448 17.047 2.25 18.0288V18.3335C2.25 22.87 3.82422 26.7124 6.97266 29.8608C10.1211 33.0093 13.9635 34.5835 18.5 34.5835ZM18.5068 36.6147C15.9788 36.6147 13.6021 36.135 11.3766 35.1757C9.15114 34.2162 7.21527 32.9142 5.56901 31.2695C3.92278 29.6248 2.61952 27.6907 1.65921 25.4673C0.698904 23.2439 0.21875 20.8683 0.21875 18.3403C0.21875 15.8123 0.698447 13.4356 1.65784 11.2101C2.61727 8.98463 3.91933 7.04877 5.56404 5.40251C7.20874 3.75628 9.14278 2.45302 11.3661 1.49271C13.5896 0.532401 15.9652 0.0522461 18.4932 0.0522461C21.0212 0.0522461 23.3979 0.531942 25.6234 1.49134C27.8489 2.45076 29.7847 3.75283 31.431 5.39753C33.0772 7.04223 34.3805 8.97627 35.3408 11.1996C36.3011 13.4231 36.7812 15.7987 36.7812 18.3267C36.7812 20.8547 36.3016 23.2314 35.3422 25.4569C34.3827 27.6824 33.0807 29.6182 31.436 31.2645C29.7913 32.9107 27.8572 34.214 25.6339 35.1743C23.4104 36.1346 21.0348 36.6147 18.5068 36.6147ZM13.8438 2.72801C15.5 6.03529 17.8399 8.4474 20.8633 9.96434C23.8867 11.4813 26.8229 12.2397 29.6719 12.2397C30.3021 12.2397 30.9219 12.2078 31.5312 12.144C32.1406 12.0802 32.7474 11.9754 33.3515 11.8296C32.0599 8.80874 30.0586 6.42919 27.3477 4.69091C24.6367 2.95263 21.6875 2.0835 18.5 2.0835C17.6094 2.0835 16.7943 2.13492 16.0547 2.23777C15.3151 2.34065 14.5781 2.50407 13.8438 2.72801ZM2.52737 15.7045C4.61851 14.7749 6.73698 13.2515 8.88279 11.1343C11.0286 9.01709 12.2799 6.35562 12.6367 3.1499C9.92058 4.18377 7.67188 5.81138 5.89061 8.03272C4.10937 10.2541 2.98829 12.8113 2.52737 15.7045Z" fill="white"/>
</svg>
