<svg width="43" height="42" viewBox="0 0 43 42" fill="none" xmlns="http://www.w3.org/2000/svg">
<path d="M21.5 35.5212C26.0364 35.5212 29.8789 33.9386 33.0273 30.7732C36.1758 27.6078 37.75 23.7738 37.75 19.2712C37.75 17.9614 37.6068 16.7133 37.3203 15.5271C37.0338 14.3409 36.6263 13.2257 36.0977 12.1814C35.2878 12.7048 34.4206 13.1059 33.4961 13.3845C32.5716 13.6632 31.6198 13.8025 30.6406 13.8025C28.7083 13.8025 26.9316 13.3097 25.3105 12.324C23.6894 11.3383 22.4193 9.99261 21.5 8.2869C20.6067 9.99261 19.3431 11.3383 17.709 12.324C16.0749 13.3097 14.2917 13.8025 12.3594 13.8025C11.3802 13.8025 10.4349 13.6632 9.52344 13.3845C8.61198 13.1059 7.7513 12.7179 6.94141 12.2205C6.41274 13.2908 5.99867 14.419 5.6992 15.6052C5.39973 16.7914 5.24999 18.0134 5.24999 19.2712C5.24999 23.7738 6.83267 27.6078 9.99804 30.7732C13.1634 33.9386 16.9974 35.5212 21.5 35.5212ZM15.4062 23.8416C16.1172 23.8416 16.7181 23.5961 17.209 23.1052C17.6999 22.6143 17.9453 22.0134 17.9453 21.3025C17.9453 20.5916 17.6999 19.9906 17.209 19.4998C16.7181 19.0089 16.1172 18.7634 15.4062 18.7634C14.6953 18.7634 14.0944 19.0089 13.6035 19.4998C13.1126 19.9906 12.8672 20.5916 12.8672 21.3025C12.8672 22.0134 13.1126 22.6143 13.6035 23.1052C14.0944 23.5961 14.6953 23.8416 15.4062 23.8416ZM27.5937 23.8416C28.3047 23.8416 28.9056 23.5961 29.3965 23.1052C29.8874 22.6143 30.1328 22.0134 30.1328 21.3025C30.1328 20.5916 29.8874 19.9906 29.3965 19.4998C28.9056 19.0089 28.3047 18.7634 27.5937 18.7634C26.8828 18.7634 26.2819 19.0089 25.791 19.4998C25.3001 19.9906 25.0547 20.5916 25.0547 21.3025C25.0547 22.0134 25.3001 22.6143 25.791 23.1052C26.2819 23.5961 26.8828 23.8416 27.5937 23.8416ZM12.3594 11.7713C14.6093 11.7713 16.526 10.9796 18.1094 9.39622C19.6927 7.81289 20.4844 5.89624 20.4844 3.64626V3.0447C17.8958 3.21136 15.5065 3.95875 13.3164 5.28685C11.1263 6.61498 9.33593 8.32331 7.94531 10.4118C8.60675 10.8442 9.30856 11.1788 10.0507 11.4158C10.793 11.6528 11.5625 11.7713 12.3594 11.7713ZM30.6406 11.7713C31.4375 11.7713 32.2135 11.6482 32.9687 11.4021C33.724 11.156 34.4323 10.8129 35.0937 10.3728C33.7292 8.31029 31.9538 6.64753 29.7676 5.3845C27.5814 4.1215 25.1641 3.35459 22.5156 3.08375V3.64626C22.5156 5.89624 23.3073 7.81289 24.8906 9.39622C26.474 10.9796 28.3906 11.7713 30.6406 11.7713ZM3.74214 41.615C2.79162 41.615 1.98824 41.2595 1.33201 40.5486C0.67575 39.8376 0.385383 39.0069 0.460912 38.0564L2.17183 19.365C2.41663 16.8077 3.08265 14.4106 4.16987 12.1736C5.25713 9.93661 6.6608 7.99064 8.38086 6.33568C10.1009 4.68072 12.0827 3.37603 14.3262 2.42162C16.5697 1.4672 18.9609 0.98999 21.5 0.98999C24.0391 0.98999 26.4303 1.4672 28.6738 2.42162C30.9173 3.37603 32.8991 4.68072 34.6191 6.33568C36.3392 7.99064 37.7429 9.93661 38.8301 12.1736C39.9173 14.4106 40.5834 16.8077 40.8282 19.365L42.5391 38.0564C42.6146 39.0069 42.3242 39.8376 41.668 40.5486C41.0117 41.2595 40.2084 41.615 39.2578 41.615H3.74214ZM21.5 37.5525C17.1901 37.5525 13.401 36.2263 10.1328 33.574C6.86456 30.9216 4.75518 27.5942 3.80465 23.5916L2.49216 38.2166C2.44009 38.5811 2.54426 38.9001 2.80467 39.1736C3.06508 39.447 3.37757 39.5837 3.74214 39.5837H39.2578C39.6224 39.5837 39.9349 39.447 40.1953 39.1736C40.4557 38.9001 40.5599 38.5811 40.5078 38.2166L39.1953 23.6307C38.2448 27.6332 36.1374 30.9542 32.8731 33.5935C29.6087 36.2328 25.8177 37.5525 21.5 37.5525Z" fill="white"/>
</svg>
