<svg xmlns="http://www.w3.org/2000/svg" width="67" height="68" viewBox="0 0 67 68" fill="none">
  <circle cx="33.5" cy="34.3335" r="33.5" fill="#62A2A3"/>
  <mask id="mask0_233_679" style="mask-type:alpha" maskUnits="userSpaceOnUse" x="9" y="9" width="49" height="50">
    <rect x="9.125" y="9.9585" width="48.75" height="48.75" fill="#D9D9D9"/>
  </mask>
  <g mask="url(#mask0_233_679)">
    <path d="M33.5001 46.5212C38.0366 46.5212 41.879 44.9386 45.0275 41.7732C48.1759 38.6078 49.7501 34.7738 49.7501 30.2712C49.7501 28.9614 49.6069 27.7133 49.3204 26.5271C49.034 25.3409 48.6264 24.2257 48.0978 23.1814C47.2879 23.7048 46.4207 24.1059 45.4962 24.3845C44.5717 24.6632 43.6199 24.8025 42.6407 24.8025C40.7084 24.8025 38.9317 24.3097 37.3106 23.324C35.6896 22.3383 34.4194 20.9926 33.5001 19.2869C32.6069 20.9926 31.3432 22.3383 29.7091 23.324C28.075 24.3097 26.2918 24.8025 24.3595 24.8025C23.3803 24.8025 22.435 24.6632 21.5236 24.3845C20.6121 24.1059 19.7514 23.7179 18.9415 23.2205C18.4129 24.2908 17.9988 25.419 17.6993 26.6052C17.3998 27.7914 17.2501 29.0134 17.2501 30.2712C17.2501 34.7738 18.8328 38.6078 21.9982 41.7732C25.1635 44.9386 28.9975 46.5212 33.5001 46.5212ZM27.4064 34.8416C28.1173 34.8416 28.7182 34.5961 29.2091 34.1052C29.7 33.6143 29.9454 33.0134 29.9454 32.3025C29.9454 31.5916 29.7 30.9906 29.2091 30.4998C28.7182 30.0089 28.1173 29.7634 27.4064 29.7634C26.6954 29.7634 26.0945 30.0089 25.6036 30.4998C25.1127 30.9906 24.8673 31.5916 24.8673 32.3025C24.8673 33.0134 25.1127 33.6143 25.6036 34.1052C26.0945 34.5961 26.6954 34.8416 27.4064 34.8416ZM39.5939 34.8416C40.3048 34.8416 40.9057 34.5961 41.3966 34.1052C41.8875 33.6143 42.1329 33.0134 42.1329 32.3025C42.1329 31.5916 41.8875 30.9906 41.3966 30.4998C40.9057 30.0089 40.3048 29.7634 39.5939 29.7634C38.8829 29.7634 38.282 30.0089 37.7911 30.4998C37.3002 30.9906 37.0548 31.5916 37.0548 32.3025C37.0548 33.0134 37.3002 33.6143 37.7911 34.1052C38.282 34.5961 38.8829 34.8416 39.5939 34.8416ZM24.3595 22.7713C26.6095 22.7713 28.5261 21.9796 30.1095 20.3962C31.6928 18.8129 32.4845 16.8962 32.4845 14.6463V14.0447C29.8959 14.2114 27.5066 14.9587 25.3165 16.2868C23.1264 17.615 21.3361 19.3233 19.9454 21.4118C20.6069 21.8442 21.3087 22.1788 22.0509 22.4158C22.7931 22.6528 23.5626 22.7713 24.3595 22.7713ZM42.6407 22.7713C43.4376 22.7713 44.2136 22.6482 44.9689 22.4021C45.7241 22.156 46.4324 21.8129 47.0938 21.3728C45.7293 19.3103 43.9539 17.6475 41.7677 16.3845C39.5815 15.1215 37.1642 14.3546 34.5157 14.0838V14.6463C34.5157 16.8962 35.3074 18.8129 36.8907 20.3962C38.4741 21.9796 40.3908 22.7713 42.6407 22.7713ZM15.7423 52.615C14.7917 52.615 13.9884 52.2595 13.3321 51.5486C12.6759 50.8376 12.3855 50.0069 12.461 49.0564L14.172 30.365C14.4168 27.8077 15.0828 25.4106 16.17 23.1736C17.2573 20.9366 18.6609 18.9906 20.381 17.3357C22.101 15.6807 24.0828 14.376 26.3263 13.4216C28.5698 12.4672 30.9611 11.99 33.5001 11.99C36.0392 11.99 38.4304 12.4672 40.6739 13.4216C42.9174 14.376 44.8992 15.6807 46.6192 17.3357C48.3393 18.9906 49.743 20.9366 50.8302 23.1736C51.9175 25.4106 52.5835 27.8077 52.8283 30.365L54.5392 49.0564C54.6147 50.0069 54.3244 50.8376 53.6681 51.5486C53.0119 52.2595 52.2085 52.615 51.258 52.615H15.7423ZM33.5001 48.5525C29.1902 48.5525 25.4011 47.2263 22.1329 44.574C18.8647 41.9216 16.7553 38.5942 15.8048 34.5916L14.4923 49.2166C14.4402 49.5811 14.5444 49.9001 14.8048 50.1736C15.0652 50.447 15.3777 50.5837 15.7423 50.5837H51.258C51.6225 50.5837 51.935 50.447 52.1954 50.1736C52.4558 49.9001 52.56 49.5811 52.5079 49.2166L51.1954 34.6307C50.2449 38.6332 48.1375 41.9542 44.8732 44.5935C41.6088 47.2328 37.8178 48.5525 33.5001 48.5525Z" fill="white"/>
  </g>
</svg>